<?xml version="1.0" encoding="UTF-8" standalone="no"?>
<!DOCTYPE svg PUBLIC "-//W3C//DTD SVG 1.1//EN" "http://www.w3.org/Graphics/SVG/1.1/DTD/svg11.dtd">
<svg width="100%" height="100%" viewBox="0 0 370 370" version="1.1" xmlns="http://www.w3.org/2000/svg" xmlns:xlink="http://www.w3.org/1999/xlink" xml:space="preserve" xmlns:serif="http://www.serif.com/" style="fill-rule:evenodd;clip-rule:evenodd;stroke-linejoin:round;stroke-miterlimit:2;">
    <g transform="matrix(1,0,0,1,-71.4653,-1216.47)">
        <g transform="matrix(1,0,0,1,0,1145)">
            <path id="_-Скругленный-прямоугольник-" serif:id="(Скругленный прямоугольник)" d="M326.5,418L314,418L314,430.5L326.5,430.5L326.5,418ZM251.5,418L239,418L239,430.5L251.5,430.5L251.5,418ZM276.5,418L264,418L264,430.5L276.5,430.5L276.5,418ZM298,418L289,418L289,430.5L298,430.5L298,418ZM301.5,418L298,418L298,430.5L301.5,430.5L301.5,418ZM226.5,418L214,418L214,426.903L214,418L211.663,418L211.663,430.5L226.5,430.5L226.5,418ZM376.5,418L364,418L364,430.5L376.5,430.5L376.5,418ZM149.163,418L136.663,418L136.663,430.5L149.163,430.5L149.163,418ZM199.163,418L186.663,418L186.663,430.5L199.163,430.5L199.163,418ZM351.5,418L339,418L339,430.5L351.5,430.5L351.5,418ZM174.163,418L161.663,418L161.663,430.5L174.163,430.5L174.163,418ZM112.81,411.921L106.173,422.517C110.763,425.392 115.828,427.578 121.223,428.929L124.261,416.802C120.157,415.775 116.303,414.111 112.81,411.921ZM400.167,411.291C396.734,413.584 392.929,415.358 388.863,416.504L392.255,428.536C397.599,427.029 402.599,424.699 407.108,421.689L400.167,411.291ZM96.961,393.112L85.388,397.844C87.477,402.953 90.347,407.662 93.852,411.818L103.411,403.759C100.74,400.594 98.552,397.006 96.961,393.112ZM415.464,392.029C413.987,395.972 411.903,399.62 409.327,402.86L419.113,410.639C422.494,406.386 425.229,401.596 427.17,396.42L415.464,392.029ZM94,368.497L81.5,368.497L81.5,378C81.5,379.318 81.549,380.625 81.645,381.919L94.112,380.994C94.037,380.005 94,379.007 94,378L94,368.497ZM418,367.334L418,378C418,378.614 417.986,379.224 417.956,379.834L430.446,380.398C430.482,379.603 430.5,378.804 430.5,378C430.5,378 430.5,374.118 430.5,367.334L418,367.334ZM94,343.497L81.5,343.497L81.5,355.997L94,355.997L94,343.497ZM418,342.334L418,354.834L430.5,354.834L430.5,342.334L418,342.334ZM94,318.497L81.5,318.497L81.5,330.997L94,330.997L94,318.497ZM418,317.334L418,329.834L430.5,329.834L430.5,317.334L418,317.334ZM94,293.497L81.5,293.497L81.5,305.997L94,305.997L94,293.497ZM418,292.334L418,304.834L430.5,304.834L430.5,292.334L418,292.334ZM94,268.498L81.5,268.498L81.5,280.998L94,280.998L94,268.498ZM418,267.334L418,279.834L430.5,279.834L430.5,267.334L418,267.334ZM94,243.498L81.5,243.498L81.5,255.998L94,255.998L94,243.498ZM418,242.334L418,254.834L430.5,254.834L430.5,242.334L418,242.334ZM94,218.497L81.5,218.497L81.5,230.998L94,230.998L94,218.497ZM418,217.334L418,229.834L430.5,229.834L430.5,217.334L418,217.334ZM94,193.498L81.5,193.498L81.5,205.997L94,205.997L94,193.498ZM418,192.334L418,204.834L430.5,204.834L430.5,192.334L418,192.334ZM94,168.497L81.5,168.497L81.5,180.997L94,180.997L94,168.497ZM418,167.334L418,179.834L430.5,179.834L430.5,167.334L418,167.334ZM94,143.497L81.5,143.497L81.5,155.997L94,155.997L94,143.497ZM418,142.334L418,154.834L430.5,154.834L430.5,142.334L418,142.334ZM96.963,118.883L85.39,114.15C83.356,119.124 82.061,124.477 81.645,130.074L94.112,131C94.427,126.741 95.413,122.666 96.963,118.883ZM414.581,117.813C416.244,121.556 417.347,125.601 417.785,129.841L430.22,128.554C429.643,122.98 428.193,117.663 426.01,112.743L414.581,117.813ZM112.815,100.076L106.179,89.479C101.534,92.388 97.376,96.004 93.857,100.176L103.414,108.237C106.098,105.052 109.271,102.294 112.815,100.076ZM398.191,99.472C401.801,101.588 405.05,104.256 407.823,107.358L417.144,99.025C413.508,94.959 409.248,91.463 404.515,88.687L398.191,99.472ZM136.668,94L136.668,81.5L134,81.5C129.596,81.5 125.318,82.045 121.23,83.069L124.267,95.197C127.38,94.415 130.642,94 134,94L136.668,94ZM374.168,94L378,94C380.952,94 383.829,94.32 386.601,94.932L389.281,82.719C385.647,81.922 381.872,81.5 378,81.5L374.168,81.5L374.168,94ZM161.668,94L161.668,81.5L149.168,81.5L149.168,94L161.668,94ZM186.668,94L186.668,81.5L174.168,81.5L174.168,94L186.668,94ZM211.668,94L211.668,81.5L199.168,81.5L199.168,94L211.668,94ZM236.668,94L236.668,81.5L224.168,81.5L224.168,94L236.668,94ZM261.668,94L261.668,81.5L249.168,81.5L249.168,94L261.668,94ZM274.168,94L286.668,94L286.668,81.5L274.168,81.5L274.168,94ZM311.668,94L311.668,81.5L299.168,81.5L299.168,94L311.668,94ZM328,94L328,81.5L324.168,81.5L324.168,94L328,94ZM336.668,94L336.668,81.5L328,81.5L328,94L336.668,94ZM361.668,94L361.668,81.5L349.168,81.5L349.168,94L361.668,94Z" style="fill:white;"/>
        </g>
        <g transform="matrix(1,0,0,1,0,1145)">
            <g id="_-Скругленный-прямоугольник-1" serif:id="(Скругленный прямоугольник)" transform="matrix(1.34454,0,0,1.17391,118.168,-32.7826)">
                <path d="M223,142.074C223,123.268 209.669,108 193.25,108L133.75,108C117.331,108 104,123.268 104,142.074L104,349.926C104,368.732 117.331,384 133.75,384L193.25,384C209.669,384 223,368.732 223,349.926L223,142.074Z" style="fill:rgb(101,0,159);"/>
                <path d="M227.648,142.074C227.648,120.33 212.235,102.676 193.25,102.676L133.75,102.676C114.765,102.676 99.352,120.33 99.352,142.074C99.352,142.074 99.352,349.926 99.352,349.926C99.352,371.67 114.765,389.324 133.75,389.324C133.75,389.324 193.25,389.324 193.25,389.324C212.235,389.324 227.648,371.67 227.648,349.926C227.648,349.926 227.648,142.074 227.648,142.074ZM223,142.074C223,123.268 209.669,108 193.25,108L133.75,108C117.331,108 104,123.268 104,142.074L104,349.926C104,368.732 117.331,384 133.75,384L193.25,384C209.669,384 223,368.732 223,349.926L223,142.074Z" style="fill:rgb(40,40,40);"/>
            </g>
        </g>
        <g transform="matrix(1,0,0,1,0,1145)">
            <g id="_-Скругленный-прямоугольник-2" serif:id="(Скругленный прямоугольник)" transform="matrix(1.34454,0,0,1.17391,85.1681,-32.7826)">
                <path d="M223,142.074C223,123.268 209.669,108 193.25,108L133.75,108C117.331,108 104,123.268 104,142.074L104,349.926C104,368.732 117.331,384 133.75,384L193.25,384C209.669,384 223,368.732 223,349.926L223,142.074Z" style="fill:rgb(15,82,255);"/>
                <path d="M227.648,142.074C227.648,120.33 212.235,102.676 193.25,102.676L133.75,102.676C114.765,102.676 99.352,120.33 99.352,142.074L99.352,349.926C99.352,371.67 114.765,389.324 133.75,389.324C133.75,389.324 193.25,389.324 193.25,389.324C212.235,389.324 227.648,371.67 227.648,349.926C227.648,349.926 227.648,142.074 227.648,142.074ZM223,142.074C223,123.268 209.669,108 193.25,108L133.75,108C117.331,108 104,123.268 104,142.074L104,349.926C104,368.732 117.331,384 133.75,384L193.25,384C209.669,384 223,368.732 223,349.926L223,142.074Z" style="fill:rgb(40,40,40);"/>
            </g>
        </g>
        <g transform="matrix(1,0,0,1,0,1145)">
            <g id="_-Скругленный-прямоугольник-3" serif:id="(Скругленный прямоугольник)" transform="matrix(1.34454,0,0,1.17391,51.1681,-32.7826)">
                <path d="M223,142.074C223,123.268 209.669,108 193.25,108L133.75,108C117.331,108 104,123.268 104,142.074L104,349.926C104,368.732 117.331,384 133.75,384L193.25,384C209.669,384 223,368.732 223,349.926L223,142.074Z" style="fill:rgb(0,193,156);"/>
                <path d="M227.648,142.074C227.648,120.33 212.235,102.676 193.25,102.676L133.75,102.676C114.765,102.676 99.352,120.33 99.352,142.074C99.352,142.074 99.352,349.926 99.352,349.926C99.352,371.67 114.765,389.324 133.75,389.324C133.75,389.324 193.25,389.324 193.25,389.324C212.235,389.324 227.648,371.67 227.648,349.926C227.648,349.926 227.648,142.074 227.648,142.074ZM223,142.074C223,123.268 209.669,108 193.25,108L133.75,108C117.331,108 104,123.268 104,142.074L104,349.926C104,368.732 117.331,384 133.75,384L193.25,384C209.669,384 223,368.732 223,349.926L223,142.074Z" style="fill:rgb(40,40,40);"/>
            </g>
        </g>
        <g transform="matrix(1,0,0,1,0,1145)">
            <path d="M134,418L273,418C295.077,418 313,400.077 313,378L313,134C313,111.923 295.077,94 273,94L134,94C111.923,94 94,111.923 94,134L94,378C94,400.077 111.923,418 134,418Z" style="fill:white;"/>
            <path d="M134,424.25L273,424.25C298.526,424.25 319.25,403.526 319.25,378C319.25,378 319.25,134 319.25,134C319.25,108.474 298.526,87.75 273,87.75L134,87.75C108.474,87.75 87.75,108.474 87.75,134L87.75,378C87.75,403.526 108.474,424.25 134,424.25ZM134,418L273,418C295.077,418 313,400.077 313,378L313,134C313,111.923 295.077,94 273,94L134,94C111.923,94 94,111.923 94,134L94,378C94,400.077 111.923,418 134,418Z" style="fill:rgb(40,40,40);"/>
        </g>
        <g transform="matrix(1,0,0,1,0,1145)">
            <g transform="matrix(1,0,0,1,114,19.5)">
                <path d="M125.93,154.973L79.055,319.133L49.172,319.133L96.34,154.973L125.93,154.973Z" style="fill:rgb(40,40,40);fill-rule:nonzero;stroke:rgb(40,40,40);stroke-width:1px;"/>
            </g>
        </g>
    </g>
</svg>
