<?xml version="1.0" encoding="UTF-8" standalone="no"?>
<!DOCTYPE svg PUBLIC "-//W3C//DTD SVG 1.1//EN" "http://www.w3.org/Graphics/SVG/1.1/DTD/svg11.dtd">
<svg width="100%" height="100%" viewBox="0 0 370 370" version="1.1" xmlns="http://www.w3.org/2000/svg" xmlns:xlink="http://www.w3.org/1999/xlink" xml:space="preserve" xmlns:serif="http://www.serif.com/" style="fill-rule:evenodd;clip-rule:evenodd;stroke-linejoin:round;stroke-miterlimit:2;">
    <path id="Вектор-17" serif:id="Вектор 17" d="M306.883,12.281C310.472,12.305 313.98,12.695 317.406,13.454C320.361,14.107 323.255,15.034 326.09,16.233C328.911,17.427 331.58,18.852 334.099,20.507C336.946,22.378 339.6,24.544 342.06,27.004C344.518,29.461 346.681,32.112 348.551,34.955L348.557,34.965C350.212,37.484 351.637,40.154 352.831,42.975C354.031,45.81 354.958,48.704 355.611,51.66C356.246,54.534 356.624,57.465 356.743,60.453L356.755,60.798L356.766,61.143L356.774,61.489L356.779,61.835L356.783,62.182C356.784,62.297 356.784,62.413 356.784,62.53L356.784,306.529C356.784,310.239 356.393,313.862 355.611,317.398L355.611,317.399C354.957,320.354 354.031,323.249 352.831,326.083C351.637,328.905 350.212,331.575 348.557,334.093L348.556,334.095C346.685,336.942 344.52,339.595 342.06,342.054C339.601,344.514 336.948,346.679 334.101,348.55L334.099,348.552C331.58,350.207 328.911,351.631 326.09,352.825C323.255,354.025 320.36,354.952 317.405,355.605L317.403,355.606C313.978,356.364 310.471,356.754 306.882,356.778L306.535,356.779L201.882,356.779L201.549,356.78L62.535,356.78C58.824,356.78 55.201,356.389 51.663,355.606L51.657,355.605C48.704,354.951 45.812,354.025 42.98,352.827C40.159,351.633 37.489,350.208 34.971,348.553C32.124,346.682 29.469,344.516 27.009,342.056C24.549,339.596 22.384,336.943 20.513,334.096L20.511,334.093C18.857,331.575 17.432,328.906 16.238,326.085C15.038,323.25 14.112,320.355 13.458,317.4L13.458,317.4L13.386,317.068C12.652,313.637 12.285,310.124 12.285,306.53L12.285,62.53C12.285,58.82 12.676,55.197 13.458,51.66C14.112,48.705 15.038,45.81 16.238,42.975C17.432,40.155 18.857,37.485 20.511,34.967L20.512,34.966C22.383,32.118 24.549,29.465 27.009,27.004C29.469,24.544 32.123,22.379 34.97,20.507C37.489,18.852 40.159,17.428 42.98,16.233C45.814,15.034 48.708,14.107 51.663,13.454L51.665,13.453C55.201,12.671 58.825,12.28 62.535,12.28L159.39,12.28L159.532,12.28L306.535,12.28L306.883,12.281ZM201.535,26.53L62.535,26.53C59.83,26.53 57.19,26.82 54.616,27.399L54.615,27.399C52.545,27.865 50.516,28.518 48.53,29.359C46.536,30.203 44.647,31.208 42.863,32.374L42.862,32.375C40.795,33.727 38.869,35.295 37.084,37.08C35.299,38.864 33.731,40.791 32.379,42.859L32.379,42.859C31.213,44.643 30.208,46.531 29.364,48.525C28.523,50.512 27.87,52.54 27.404,54.61C26.824,57.185 26.535,59.825 26.535,62.53L26.535,306.53C26.535,309.235 26.824,311.875 27.404,314.45L27.406,314.461C27.872,316.528 28.525,318.552 29.364,320.535C30.208,322.529 31.213,324.418 32.379,326.202L32.38,326.203C33.732,328.27 35.3,330.196 37.084,331.98C38.869,333.766 40.796,335.334 42.864,336.686C44.647,337.852 46.536,338.857 48.53,339.701C50.516,340.542 52.544,341.195 54.615,341.661L54.62,341.662C57.193,342.241 59.831,342.53 62.535,342.53L201.52,342.53L201.812,342.529C202.223,342.526 202.633,342.516 203.04,342.499L203.086,342.497C205.051,342.414 206.983,342.175 208.883,341.78L208.886,341.779L208.887,341.779L209.133,341.727C210.364,341.462 211.582,341.132 212.786,340.735C216.304,339.577 219.506,337.973 222.39,335.924L222.394,335.921C225.473,333.733 228.192,331.037 230.55,327.833C232.851,324.706 234.584,321.39 235.748,317.885L235.748,317.884C236.939,314.297 237.535,310.512 237.535,306.53L237.535,62.53C237.535,58.785 237.002,55.205 235.936,51.793L235.935,51.791C234.911,48.511 233.394,45.384 231.385,42.412C229.334,39.377 226.948,36.755 224.227,34.546L224.223,34.543L224.22,34.541C221.63,32.44 218.736,30.712 215.539,29.359C215.01,29.135 214.477,28.924 213.938,28.726L213.917,28.719C213.542,28.581 213.164,28.45 212.784,28.325C211.497,27.901 210.195,27.553 208.878,27.279C206.979,26.885 205.048,26.646 203.084,26.563C202.698,26.546 202.31,26.536 201.923,26.532L201.535,26.53ZM240.545,26.543C240.209,26.534 239.873,26.53 239.535,26.53L236.621,26.53C236.762,26.667 236.902,26.805 237.042,26.944C237.215,27.117 237.388,27.292 237.558,27.468C239.344,29.304 240.987,31.282 242.488,33.404L242.697,33.701C242.774,33.813 242.851,33.924 242.928,34.035L243.091,34.276C243.409,34.744 243.72,35.22 244.024,35.702L244.046,35.738C244.119,35.854 244.191,35.97 244.263,36.086L244.456,36.401C244.59,36.619 244.721,36.839 244.851,37.06L244.9,37.142C245.032,37.368 245.163,37.594 245.292,37.821C245.409,38.029 245.525,38.236 245.64,38.445C246.367,39.768 247.029,41.108 247.627,42.467C248.016,43.353 248.379,44.245 248.713,45.145L248.721,45.165C248.767,45.29 248.812,45.415 248.858,45.54L248.986,45.898C249.061,46.11 249.134,46.322 249.206,46.535L249.252,46.67L249.363,47.007C249.489,47.393 249.609,47.779 249.725,48.168C249.803,48.429 249.879,48.691 249.953,48.954L249.954,48.957C250.144,49.636 250.32,50.32 250.481,51.008C250.573,51.404 250.661,51.801 250.744,52.201C250.856,52.743 250.959,53.287 251.053,53.834C251.197,54.668 251.32,55.508 251.421,56.354L251.434,56.465C251.45,56.608 251.467,56.75 251.483,56.892L251.527,57.313C251.619,58.237 251.687,59.169 251.73,60.107L251.74,60.342L251.756,60.777L251.769,61.214L251.776,61.547C251.78,61.788 251.783,62.031 251.784,62.273L251.785,62.53L251.785,306.53C251.785,308.257 251.702,309.961 251.537,311.643C251.505,311.963 251.471,312.283 251.434,312.601C251.34,313.397 251.228,314.188 251.096,314.973L251.07,315.133L250.997,315.552L250.94,315.862C250.833,316.435 250.717,317.006 250.59,317.574C250.417,318.349 250.225,319.12 250.014,319.886L249.954,320.102C249.817,320.592 249.672,321.08 249.519,321.566C249.251,322.417 248.959,323.261 248.644,324.098L248.581,324.266L248.534,324.388C248.374,324.806 248.208,325.222 248.036,325.636C247.869,326.04 247.696,326.441 247.517,326.841C247.276,327.382 247.024,327.921 246.762,328.456C246.522,328.946 246.274,329.433 246.017,329.918L245.904,330.131L245.709,330.49C245.644,330.609 245.578,330.729 245.512,330.848L245.343,331.149C245.198,331.406 245.051,331.662 244.901,331.917C244.813,332.067 244.724,332.217 244.634,332.366L244.479,332.624C244.407,332.74 244.336,332.857 244.264,332.973L244.048,333.321C243.974,333.436 243.901,333.551 243.828,333.666L243.642,333.955C243.532,334.124 243.421,334.293 243.31,334.46C242.894,335.084 242.466,335.697 242.027,336.297C241.674,336.78 241.313,337.256 240.945,337.724L240.771,337.944C240.687,338.048 240.603,338.152 240.52,338.257L240.305,338.519C239.822,339.108 239.325,339.685 238.817,340.249L238.696,340.382L238.577,340.513C238.078,341.059 237.567,341.592 237.044,342.114C236.905,342.253 236.764,342.392 236.623,342.529L239.535,342.529C239.62,342.529 239.704,342.529 239.788,342.528C240.463,342.524 241.134,342.501 241.801,342.46L242.051,342.444C242.134,342.438 242.217,342.432 242.3,342.426L242.423,342.417C242.876,342.381 243.328,342.337 243.777,342.285C244.522,342.198 245.262,342.089 245.996,341.956L246.24,341.911L246.35,341.89C246.719,341.819 247.085,341.743 247.451,341.661L247.466,341.657L247.853,341.567C249.786,341.109 251.681,340.487 253.539,339.7L253.65,339.652C255.391,338.909 257.051,338.043 258.63,337.052C258.822,336.932 259.013,336.81 259.203,336.686L259.204,336.686L259.209,336.683C259.421,336.544 259.632,336.403 259.842,336.259C260.864,335.559 261.851,334.804 262.802,333.994C263.552,333.356 264.279,332.685 264.985,331.979L265.317,331.643C265.426,331.529 265.535,331.416 265.645,331.303L265.859,331.075C266.645,330.235 267.384,329.365 268.079,328.466L268.22,328.281C268.737,327.603 269.227,326.909 269.692,326.198L269.692,326.197C270.459,325.025 271.155,323.808 271.782,322.544C272.109,321.886 272.417,321.216 272.706,320.533C272.863,320.162 273.014,319.789 273.158,319.415L273.159,319.411L273.205,319.291C273.464,318.61 273.702,317.924 273.918,317.232C273.983,317.025 274.046,316.816 274.107,316.608C274.317,315.893 274.503,315.172 274.666,314.447L274.667,314.444L274.675,314.408C274.872,313.528 275.035,312.641 275.164,311.746C275.234,311.262 275.294,310.776 275.344,310.288C275.376,309.98 275.404,309.67 275.427,309.36C275.482,308.653 275.515,307.941 275.528,307.225C275.533,306.993 275.535,306.761 275.535,306.529L275.535,62.53C275.535,61.93 275.521,61.333 275.492,60.74C275.446,59.765 275.36,58.799 275.237,57.841C275.163,57.272 275.076,56.705 274.975,56.142L274.964,56.077L274.955,56.031C274.869,55.56 274.774,55.091 274.669,54.624L274.665,54.605L274.649,54.534C274.443,53.629 274.201,52.732 273.924,51.843C273.789,51.411 273.646,50.982 273.494,50.554C273.379,50.229 273.259,49.906 273.134,49.583L273.012,49.271L272.9,48.994C272.837,48.838 272.772,48.681 272.706,48.525C272.643,48.376 272.579,48.228 272.514,48.08C272.415,47.856 272.315,47.633 272.213,47.411L272.043,47.05L272.031,47.026C271.341,45.579 270.562,44.19 269.692,42.86C269.433,42.464 269.167,42.074 268.892,41.688C268.671,41.378 268.444,41.07 268.212,40.766L268.079,40.593L268.054,40.56C267.232,39.498 266.347,38.478 265.398,37.5C265.262,37.358 265.124,37.218 264.985,37.079C264.862,36.956 264.738,36.834 264.613,36.713C262.934,35.079 261.131,33.633 259.206,32.374L259.205,32.374L259.2,32.37C257.418,31.206 255.531,30.202 253.539,29.359L253.357,29.283C253.153,29.198 252.948,29.114 252.743,29.033C251.939,28.715 251.128,28.426 250.31,28.169C249.894,28.038 249.477,27.915 249.058,27.8L248.997,27.783L248.858,27.746C248.391,27.62 247.922,27.504 247.451,27.398L247.45,27.398L247.446,27.397C247.36,27.378 247.275,27.359 247.189,27.34C246.917,27.281 246.645,27.225 246.372,27.173L246.236,27.147C246.155,27.132 246.073,27.117 245.992,27.102L245.749,27.059L245.671,27.046C245.285,26.98 244.898,26.92 244.509,26.866C244.177,26.821 243.844,26.78 243.509,26.743C243.146,26.704 242.781,26.67 242.416,26.641L242.298,26.632C242.215,26.626 242.132,26.62 242.049,26.614L241.854,26.602C241.419,26.575 240.983,26.555 240.545,26.543ZM276.294,26.632C275.745,26.591 275.193,26.562 274.639,26.546C274.758,26.663 274.878,26.78 274.997,26.899C276.109,28.006 277.167,29.166 278.172,30.379L278.23,30.449L278.485,30.76L278.696,31.023C279.018,31.425 279.334,31.833 279.644,32.246L279.722,32.35L279.958,32.669C280.096,32.856 280.232,33.044 280.367,33.233C281.254,34.476 282.091,35.767 282.88,37.108C284.049,39.095 285.069,41.124 285.941,43.195C286.101,43.576 286.257,43.959 286.408,44.344L286.427,44.392C286.475,44.517 286.523,44.641 286.571,44.766L286.704,45.12C286.839,45.483 286.97,45.846 287.096,46.211C287.407,47.111 287.691,48.018 287.948,48.933L287.95,48.94C288.217,49.893 288.456,50.855 288.665,51.825C288.867,52.763 289.042,53.71 289.189,54.664C289.587,57.23 289.785,59.852 289.785,62.53L289.785,306.529C289.785,307.109 289.776,307.687 289.757,308.262C289.748,308.535 289.737,308.808 289.724,309.081C289.704,309.488 289.68,309.894 289.651,310.299C289.58,311.29 289.481,312.273 289.353,313.248C289.2,314.415 289.007,315.57 288.774,316.713C288.556,317.779 288.304,318.836 288.015,319.882L287.95,320.118L287.948,320.126L287.947,320.127L287.944,320.138C287.623,321.28 287.26,322.409 286.855,323.527L286.846,323.552L286.725,323.882L286.709,323.927L286.592,324.236L286.568,324.301L286.457,324.589L286.424,324.674L286.318,324.941L286.277,325.046L286.177,325.291L286.129,325.412L286.126,325.417L286.034,325.641L285.975,325.782L285.973,325.788L285.887,325.989L285.818,326.152L285.816,326.157L285.738,326.337L285.658,326.521L285.656,326.526L285.587,326.683L285.495,326.889L285.493,326.894L285.433,327.028L285.329,327.257L285.16,327.623L284.987,327.988L284.811,328.353L284.632,328.717L284.625,328.731C284.146,329.695 283.633,330.649 283.087,331.594L282.88,331.95C282.623,332.387 282.361,332.819 282.093,333.245C281.801,333.712 281.502,334.172 281.197,334.627C281.064,334.824 280.931,335.02 280.796,335.215C280.486,335.662 280.171,336.103 279.849,336.537L279.726,336.704L279.484,337.026L279.239,337.346C279.156,337.452 279.074,337.557 278.992,337.663L278.77,337.944C278.523,338.253 278.274,338.559 278.02,338.862C277.343,339.672 276.641,340.459 275.915,341.221C275.628,341.522 275.338,341.82 275.043,342.114L275.008,342.149L274.639,342.513L275.073,342.498C275.43,342.483 275.786,342.463 276.14,342.438C276.522,342.411 276.903,342.378 277.282,342.339C277.946,342.271 278.607,342.185 279.263,342.08C279.996,341.964 280.724,341.824 281.446,341.662L281.451,341.661C282.702,341.38 283.937,341.03 285.157,340.611C285.455,340.509 285.752,340.403 286.049,340.293C286.548,340.107 287.045,339.909 287.539,339.7C287.724,339.622 287.908,339.542 288.091,339.46C289.406,338.879 290.674,338.226 291.895,337.501C292.337,337.239 292.772,336.968 293.202,336.687L293.204,336.686L293.208,336.683L293.401,336.556L293.575,336.44C293.692,336.361 293.809,336.282 293.926,336.201C294.223,335.996 294.517,335.787 294.808,335.573C295.216,335.273 295.619,334.963 296.015,334.645C296.423,334.318 296.824,333.981 297.218,333.635L297.271,333.589L297.374,333.498C297.489,333.396 297.603,333.293 297.717,333.189C298.147,332.798 298.57,332.394 298.985,331.979C299.169,331.795 299.351,331.61 299.529,331.423C299.677,331.269 299.822,331.115 299.967,330.96L300.282,330.615C300.386,330.499 300.49,330.382 300.594,330.266L300.62,330.236C301.304,329.458 301.951,328.654 302.561,327.827L302.634,327.728L302.77,327.541L302.807,327.488C302.989,327.236 303.167,326.981 303.342,326.723C303.459,326.552 303.574,326.379 303.688,326.205L303.693,326.196C303.897,325.884 304.097,325.568 304.291,325.249C304.673,324.622 305.036,323.983 305.379,323.331L305.507,323.088L305.61,322.885C305.767,322.578 305.92,322.268 306.068,321.955L306.215,321.643L306.322,321.408C306.454,321.119 306.582,320.827 306.706,320.533C306.939,319.983 307.157,319.43 307.361,318.873C307.548,318.364 307.723,317.852 307.885,317.337C308.088,316.696 308.272,316.05 308.437,315.4C308.518,315.083 308.594,314.766 308.666,314.447L308.667,314.444C308.762,314.02 308.85,313.594 308.929,313.167C309.017,312.695 309.096,312.222 309.164,311.746L309.196,311.522C309.207,311.44 309.218,311.358 309.229,311.276L309.246,311.14C309.265,310.993 309.283,310.845 309.3,310.697C309.431,309.552 309.507,308.394 309.528,307.225C309.533,306.993 309.535,306.761 309.535,306.529L309.535,62.53C309.535,62.426 309.535,62.324 309.534,62.221C309.531,61.944 309.526,61.668 309.518,61.392C309.498,60.751 309.462,60.114 309.41,59.481L309.392,59.266L309.389,59.238C309.359,58.896 309.323,58.555 309.283,58.215L309.26,58.028L309.237,57.841C309.199,57.552 309.159,57.264 309.114,56.977C309.014,56.328 308.896,55.682 308.76,55.041C308.73,54.898 308.699,54.755 308.667,54.612L308.666,54.609C308.591,54.277 308.511,53.945 308.427,53.616C308.244,52.9 308.038,52.189 307.809,51.483L307.702,51.156C307.659,51.03 307.616,50.903 307.573,50.777L307.475,50.5C307.239,49.837 306.983,49.179 306.706,48.525C306.643,48.376 306.579,48.228 306.514,48.08C306.335,47.673 306.15,47.271 305.958,46.873C305.514,45.953 305.033,45.057 304.516,44.184C304.252,43.737 303.977,43.296 303.693,42.861L303.687,42.853L303.676,42.837C303.46,42.506 303.238,42.179 303.01,41.856L302.904,41.706C302.859,41.643 302.814,41.58 302.769,41.518L302.687,41.404C302.377,40.978 302.057,40.558 301.727,40.145C301.334,39.652 300.928,39.169 300.507,38.696C300.318,38.482 300.126,38.27 299.93,38.06C299.622,37.728 299.307,37.401 298.985,37.079C298.852,36.947 298.719,36.815 298.584,36.685C298.139,36.253 297.685,35.833 297.222,35.427L297.094,35.315C297.035,35.264 296.976,35.213 296.917,35.162L296.754,35.023C296.37,34.698 295.98,34.381 295.585,34.074C295.232,33.799 294.874,33.531 294.512,33.27C294.323,33.135 294.134,33.001 293.943,32.869L293.783,32.759C293.719,32.716 293.655,32.673 293.591,32.63L293.462,32.543C293.377,32.486 293.291,32.43 293.205,32.374L293.185,32.361C292.496,31.911 291.792,31.485 291.071,31.084C290.861,30.966 290.649,30.851 290.435,30.737L290.361,30.698C289.998,30.506 289.632,30.321 289.261,30.141C288.696,29.866 288.122,29.606 287.539,29.359C286.988,29.126 286.434,28.907 285.876,28.703L285.665,28.625C285.539,28.581 285.413,28.536 285.287,28.492L284.929,28.37C284.224,28.134 283.515,27.92 282.8,27.73L282.614,27.68L282.233,27.583C281.974,27.519 281.714,27.457 281.453,27.398L281.451,27.398L281.435,27.395C281.256,27.354 281.077,27.316 280.898,27.279L280.601,27.218C280.462,27.191 280.322,27.164 280.183,27.137L279.776,27.064C278.628,26.863 277.467,26.719 276.294,26.632ZM309.94,26.686C309.524,26.647 309.106,26.616 308.686,26.592C308.79,26.694 308.894,26.797 308.998,26.899L308.998,26.9C309.188,27.089 309.376,27.28 309.564,27.472C310.112,28.036 310.646,28.613 311.167,29.204C311.46,29.536 311.749,29.872 312.034,30.213C312.904,31.254 313.734,32.335 314.525,33.456L314.671,33.663C314.748,33.774 314.825,33.886 314.902,33.997L315.092,34.276C315.629,35.069 316.147,35.882 316.646,36.714C316.724,36.844 316.802,36.976 316.88,37.108C317.141,37.552 317.394,37.997 317.64,38.445C317.748,38.642 317.855,38.839 317.96,39.037C318.341,39.752 318.704,40.472 319.048,41.199C319.163,41.442 319.276,41.686 319.387,41.93C319.958,43.187 320.473,44.459 320.933,45.748C321.05,46.074 321.163,46.402 321.272,46.73C321.484,47.367 321.683,48.008 321.868,48.652L321.95,48.94C322.312,50.229 322.62,51.533 322.875,52.853L322.918,53.076C322.943,53.216 322.969,53.355 322.995,53.495L323.054,53.836C323.224,54.82 323.364,55.812 323.474,56.812C323.569,57.676 323.643,58.545 323.694,59.421C323.72,59.861 323.741,60.303 323.755,60.746C323.769,61.17 323.779,61.596 323.782,62.024C323.784,62.192 323.785,62.361 323.785,62.53L323.785,306.529C323.785,309.572 323.529,312.544 323.015,315.444L322.996,315.558L322.919,315.977C322.892,316.116 322.865,316.255 322.838,316.394L322.769,316.737C322.697,317.091 322.62,317.444 322.54,317.796C322.422,318.311 322.297,318.824 322.162,319.335L322.065,319.701L321.952,320.11L321.95,320.119C321.751,320.828 321.535,321.533 321.303,322.234L321.246,322.407C321.203,322.533 321.161,322.659 321.118,322.785L320.994,323.141C320.547,324.407 320.047,325.658 319.493,326.894L319.33,327.253L319.174,327.593C318.754,328.491 318.307,329.382 317.83,330.264L317.691,330.521L317.555,330.767C317.346,331.146 317.13,331.523 316.91,331.899L316.88,331.95C316.4,332.767 315.902,333.565 315.385,334.345C315.127,334.735 314.864,335.12 314.597,335.501C314.445,335.717 314.292,335.932 314.137,336.145L313.963,336.384L313.723,336.708C313.588,336.889 313.452,337.069 313.314,337.247C313.204,337.39 313.094,337.533 312.982,337.675C312.094,338.806 311.162,339.893 310.186,340.934C310.027,341.104 309.866,341.273 309.704,341.441C309.471,341.683 309.236,341.922 308.998,342.159C308.894,342.262 308.79,342.365 308.686,342.467L309.052,342.444C309.418,342.419 309.782,342.389 310.145,342.353L310.508,342.315L310.87,342.274C310.99,342.259 311.11,342.244 311.231,342.229L311.269,342.224C311.682,342.17 312.094,342.109 312.504,342.04C312.923,341.971 313.34,341.894 313.755,341.809C313.985,341.763 314.215,341.713 314.444,341.662L314.451,341.661C315.701,341.38 316.937,341.03 318.157,340.611C318.467,340.505 318.775,340.395 319.083,340.28L319.417,340.153L319.792,340.007L319.927,339.952C320.132,339.87 320.336,339.786 320.539,339.7C320.724,339.622 320.908,339.542 321.091,339.46C322.406,338.879 323.674,338.226 324.895,337.501C325.337,337.239 325.772,336.968 326.202,336.687L326.204,336.686L326.207,336.683L326.4,336.556L326.593,336.427C326.657,336.384 326.721,336.341 326.785,336.297L326.936,336.194C327.181,336.024 327.425,335.852 327.667,335.676C327.879,335.521 328.09,335.364 328.299,335.205L328.474,335.072C328.535,335.024 328.596,334.977 328.657,334.929L328.84,334.785L328.919,334.722C329.348,334.38 329.77,334.028 330.185,333.664C330.8,333.126 331.4,332.564 331.985,331.979C332.602,331.362 333.193,330.729 333.758,330.078C333.963,329.842 334.165,329.604 334.363,329.363C335.198,328.35 335.973,327.297 336.687,326.205L336.692,326.198L336.693,326.196C336.775,326.071 336.856,325.945 336.936,325.819L337.122,325.523C337.192,325.409 337.262,325.296 337.331,325.182L337.494,324.911C338.063,323.955 338.587,322.969 339.068,321.955C339.29,321.487 339.503,321.013 339.706,320.533C339.797,320.318 339.886,320.102 339.972,319.886C340.107,319.55 340.237,319.212 340.361,318.873C340.548,318.364 340.723,317.852 340.885,317.337C341.078,316.728 341.254,316.115 341.412,315.498C341.502,315.149 341.587,314.798 341.666,314.447L341.667,314.444C341.695,314.319 341.722,314.194 341.749,314.069C341.913,313.299 342.052,312.524 342.165,311.742L342.196,311.522L342.207,311.444C342.251,311.119 342.29,310.793 342.326,310.466L342.339,310.342C342.358,310.159 342.375,309.975 342.392,309.792L342.413,309.543C342.483,308.692 342.522,307.834 342.532,306.97C342.534,306.823 342.535,306.676 342.535,306.529L342.535,62.53L342.535,62.473C342.535,62.31 342.533,62.148 342.531,61.985C342.529,61.82 342.525,61.654 342.521,61.489C342.497,60.647 342.445,59.811 342.365,58.982L342.345,58.775C342.336,58.693 342.327,58.611 342.318,58.528L342.307,58.43C342.255,57.967 342.194,57.505 342.124,57.046C342.001,56.232 341.849,55.425 341.669,54.624L341.666,54.612L341.665,54.605C341.596,54.298 341.523,53.992 341.445,53.688C341.287,53.063 341.111,52.442 340.918,51.825C340.795,51.432 340.665,51.04 340.528,50.65C340.278,49.937 340.004,49.228 339.706,48.525L339.657,48.412C339.343,47.676 339.007,46.954 338.648,46.247C338.056,45.079 337.404,43.951 336.692,42.861L336.687,42.853C336.467,42.517 336.242,42.185 336.01,41.856L335.904,41.706C335.859,41.643 335.814,41.58 335.769,41.518L335.687,41.404C335.377,40.978 335.057,40.558 334.727,40.145C334.334,39.652 333.928,39.169 333.507,38.696C333.318,38.482 333.126,38.27 332.93,38.06C332.622,37.728 332.307,37.401 331.985,37.079C331.852,36.947 331.719,36.815 331.584,36.685C331.139,36.253 330.685,35.833 330.222,35.427L330.094,35.315C330.035,35.264 329.976,35.213 329.917,35.162L329.785,35.05C329.391,34.715 328.991,34.39 328.585,34.074C328.232,33.799 327.874,33.531 327.512,33.27C327.322,33.134 327.131,32.999 326.939,32.866L326.783,32.759C326.719,32.716 326.655,32.673 326.591,32.63L326.462,32.543C326.377,32.486 326.291,32.43 326.205,32.374L326.185,32.361C325.634,32.001 325.074,31.657 324.503,31.328L324.488,31.319L324.374,31.255C323.987,31.034 323.596,30.82 323.2,30.614L323.086,30.554L322.934,30.476C322.5,30.254 322.061,30.04 321.616,29.835C321.26,29.671 320.901,29.512 320.539,29.359L320.166,29.203L319.95,29.116C319.615,28.981 319.278,28.851 318.94,28.726C318.693,28.635 318.446,28.547 318.197,28.462C317.583,28.25 316.966,28.056 316.344,27.88C315.943,27.766 315.541,27.659 315.136,27.56C314.909,27.503 314.681,27.45 314.452,27.398L314.432,27.394L314.097,27.32C313.978,27.296 313.86,27.271 313.742,27.246L313.589,27.216C313.201,27.139 312.812,27.068 312.422,27.004C312.042,26.942 311.66,26.885 311.277,26.835C310.833,26.777 310.388,26.727 309.94,26.686ZM87.823,266.202L87.827,266.187C87.838,266.144 87.85,266.101 87.862,266.058L135.03,101.898C135.153,101.47 135.335,101.081 135.574,100.733C135.814,100.384 136.112,100.076 136.468,99.808C136.824,99.54 137.203,99.338 137.604,99.204C138.005,99.07 138.429,99.003 138.875,99.003L168.465,99.003L168.745,99.013C168.837,99.019 168.928,99.029 169.019,99.042L169.298,99.091C169.387,99.11 169.475,99.132 169.563,99.157C170.094,99.308 170.559,99.543 170.959,99.86C171.359,100.177 171.693,100.577 171.961,101.06C172.229,101.543 172.393,102.037 172.451,102.544C172.455,102.579 172.458,102.614 172.461,102.649L172.468,102.735L172.473,102.83L172.475,102.927L172.475,102.975C172.475,103.066 172.472,103.157 172.465,103.249L172.465,103.25C172.448,103.482 172.41,103.715 172.351,103.951L172.348,103.964C172.336,104.009 172.324,104.055 172.311,104.101L125.436,268.261C125.313,268.691 125.132,269.08 124.893,269.429C124.653,269.778 124.355,270.087 123.999,270.356C123.642,270.625 123.263,270.827 122.862,270.961C122.485,271.088 122.089,271.154 121.673,271.162L121.59,271.163L91.707,271.163L91.425,271.153C91.333,271.147 91.241,271.137 91.149,271.124C91.057,271.111 90.965,271.095 90.874,271.075C90.783,271.056 90.692,271.033 90.602,271.007C90.071,270.855 89.606,270.62 89.207,270.302C88.808,269.984 88.475,269.584 88.207,269.1C87.94,268.617 87.777,268.122 87.72,267.615C87.716,267.582 87.713,267.549 87.71,267.516L87.709,267.511L87.707,267.476L87.703,267.424L87.702,267.406L87.701,267.373L87.698,267.329L87.698,267.314L87.698,267.301L87.697,267.272L87.696,267.233L87.696,267.212L87.696,267.196L87.696,267.178L87.697,267.136L87.698,267.071L87.699,267.056L87.699,267.05C87.701,267.008 87.703,266.967 87.706,266.925L87.706,266.915L87.708,266.897L87.712,266.846L87.718,266.792L87.719,266.774L87.721,266.765C87.725,266.723 87.731,266.681 87.737,266.638L87.738,266.632L87.74,266.616L87.75,266.552L87.758,266.507L87.761,266.489L87.763,266.477C87.771,266.435 87.78,266.392 87.789,266.349L87.81,266.257L87.819,266.22L87.823,266.202Z" style="fill:#C5C5C5;"/>
</svg>
